<svg width="644" height="435" viewBox="0 0 644 435" fill="none" xmlns="http://www.w3.org/2000/svg">
<g clip-path="url(#clip0_403_454)">
<path d="M43.3396 327.796C40.2816 327.796 37.2173 327.922 34.2248 328.177L33.7892 328.213C13.9397 329.966 -0.57936 340.134 0.0177672 351.865L0.133206 353.987C0.209332 355.328 0.290441 356.769 0.357202 358.369C0.393362 359.158 1.47099 359.763 2.81189 359.763H491.063C525.487 359.554 559.786 359.291 593.003 358.982C599.232 358.995 605.458 358.673 611.653 358.017C620.884 356.926 627.291 354.763 631.242 351.404H631.243C636.156 347.239 636.311 341.995 636.014 336.07C635.409 324.105 634.808 311.537 634.209 299.006C633.68 287.962 633.153 276.948 632.627 266.403C632.301 260.145 631.577 254.622 625.998 250.4C619.95 245.834 608.921 243.52 593.216 243.52C593.026 243.52 592.838 243.52 592.646 243.521C543.427 243.696 494.66 260.599 471.295 285.583C468.604 288.46 466.097 291.54 463.672 294.519C460.089 298.92 456.386 303.47 451.965 307.539C449.572 309.772 446.984 311.787 444.232 313.56C444.042 313.691 443.825 313.831 443.595 313.964C443.07 314.306 442.521 314.636 441.986 314.93C438.851 316.738 435.548 318.238 432.123 319.408L431.778 319.524C431.517 319.617 431.235 319.71 430.953 319.795C428.975 320.429 426.921 320.977 424.862 321.421C415.956 323.381 405.828 323.851 394.762 322.816C384.6 321.84 374.568 319.799 364.834 316.725C354.586 313.49 344.995 309.457 335.719 305.557C331.644 303.843 327.43 302.072 323.221 300.393C322.43 300.077 321.652 299.769 320.862 299.46C315.722 297.459 311.062 295.806 306.615 294.408C295.6 290.929 284.197 288.819 272.664 288.127C260.423 287.457 249.636 288.72 240.61 291.871C238.121 292.736 235.698 293.779 233.359 294.991C222.668 300.536 216.077 308.72 209.704 316.635C201.776 326.479 193.578 336.66 177.39 341.937C158.71 348.033 131.444 345.5 112.154 341.097C106.089 339.712 100.031 338.119 94.1728 336.578C91.8067 335.955 89.439 335.337 87.0696 334.723C82.4135 333.522 78.603 332.602 75.0776 331.826L73.9626 331.578C73.3423 331.444 72.7215 331.309 72.0894 331.181C67.902 330.303 64.0028 329.612 60.1629 329.068L59.2545 328.936C57.4331 328.696 55.7303 328.497 54.0594 328.329L53.3923 328.263C50.1196 327.952 46.7328 327.796 43.3396 327.796Z" fill="#E6E6E6"/>
<path d="M548.22 340.89C561.958 328.524 582.393 322.307 599.534 329.24C581.951 338.991 568.387 354.639 561.244 373.416C558.515 380.668 556.236 389.017 549.524 392.899C545.347 395.315 540.152 395.433 535.469 394.267C530.786 393.101 526.494 390.763 522.261 388.448L521.056 388.421C526.464 370.757 534.481 353.255 548.22 340.89Z" fill="#C2C2C2"/>
<path d="M599.438 329.616C584.257 331.575 570.08 338.263 558.921 348.728C556.478 350.939 554.4 353.52 552.762 356.377C551.257 359.211 550.539 362.396 550.683 365.601C550.757 368.593 551.18 371.644 550.525 374.601C550.167 376.11 549.494 377.526 548.55 378.757C547.606 379.987 546.412 381.005 545.046 381.742C541.692 383.668 537.844 384.275 534.061 384.738C529.861 385.253 525.49 385.72 521.854 388.073C521.413 388.359 520.996 387.659 521.436 387.374C527.762 383.28 535.767 384.77 542.569 382.038C545.743 380.763 548.551 378.525 549.545 375.141C550.414 372.182 549.981 369.035 549.88 366.007C549.693 362.882 550.276 359.76 551.576 356.911C553.063 353.981 555.038 351.324 557.418 349.055C562.692 343.862 568.752 339.529 575.374 336.216C582.911 332.392 591.047 329.885 599.431 328.802C599.95 328.735 599.954 329.55 599.438 329.616H599.438Z" fill="white"/>
<path d="M562.315 345.147C560.812 343.039 560.107 340.465 560.328 337.886C560.548 335.307 561.68 332.89 563.52 331.067C563.894 330.699 564.483 331.262 564.109 331.63C562.392 333.324 561.339 335.576 561.138 337.978C560.937 340.38 561.603 342.775 563.015 344.73C563.322 345.155 562.62 345.57 562.315 345.147V345.147Z" fill="white"/>
<path d="M550.445 364.09C555.662 365.013 561.036 363.938 565.495 361.08C565.936 360.796 566.353 361.496 565.912 361.779C561.267 364.745 555.673 365.852 550.246 364.879C549.729 364.786 549.931 363.997 550.445 364.09V364.09Z" fill="white"/>
<path d="M582.977 333.47C583.389 334.407 584.027 335.227 584.835 335.856C585.642 336.486 586.593 336.906 587.603 337.077C588.121 337.164 587.918 337.953 587.404 337.867C586.289 337.672 585.239 337.207 584.345 336.514C583.452 335.82 582.742 334.918 582.277 333.887C582.226 333.794 582.211 333.684 582.237 333.58C582.264 333.477 582.328 333.387 582.418 333.329C582.511 333.274 582.622 333.258 582.727 333.285C582.831 333.311 582.921 333.378 582.977 333.47V333.47Z" fill="white"/>
<path d="M618.409 388.872C618.084 388.828 617.759 388.783 617.43 388.743C613.056 388.163 608.643 387.939 604.234 388.073C603.893 388.078 603.547 388.088 603.207 388.103C592.587 388.539 582.14 390.941 572.398 395.186C568.522 396.879 564.782 398.864 561.208 401.124C556.273 404.245 551.171 408.021 545.654 409.294C545.08 409.433 544.498 409.537 543.911 409.604L521.117 389.891C521.087 389.82 521.053 389.754 521.024 389.683L520.078 388.938C520.254 388.809 520.439 388.678 520.615 388.549C520.717 388.473 520.824 388.402 520.926 388.327C520.996 388.278 521.065 388.229 521.125 388.181C521.148 388.164 521.172 388.148 521.19 388.137C521.25 388.089 521.311 388.051 521.367 388.008C522.401 387.276 523.443 386.55 524.492 385.83C524.496 385.825 524.496 385.825 524.506 385.824C532.444 380.262 541.015 375.66 550.039 372.115C550.31 372.013 550.585 371.905 550.866 371.812C554.93 370.303 559.111 369.128 563.366 368.299C565.698 367.853 568.051 367.524 570.416 367.316C576.527 366.788 582.684 367.223 588.66 368.607C600.573 371.366 611.47 377.899 617.924 388.089C618.089 388.35 618.249 388.606 618.409 388.872Z" fill="#C2C2C2"/>
<path d="M618.107 389.117C604.805 381.552 589.454 378.366 574.236 380.012C570.953 380.308 567.738 381.119 564.708 382.415C561.798 383.773 559.305 385.884 557.488 388.53C555.744 390.963 554.242 393.654 551.936 395.621C550.741 396.61 549.35 397.336 547.854 397.751C546.359 398.166 544.792 398.26 543.257 398.028C539.418 397.548 535.98 395.719 532.68 393.814C529.017 391.699 525.245 389.444 520.923 389.136C520.399 389.099 520.488 388.29 521.011 388.327C528.53 388.862 534.023 394.865 541.101 396.774C544.404 397.665 547.995 397.566 550.829 395.462C553.306 393.623 554.857 390.85 556.602 388.371C558.336 385.764 560.684 383.621 563.439 382.129C566.393 380.683 569.571 379.749 572.839 379.369C580.181 378.394 587.631 378.578 594.915 379.915C603.238 381.395 611.246 384.286 618.592 388.462C619.047 388.721 618.559 389.374 618.107 389.117V389.117Z" fill="white"/>
<path d="M579.105 379.194C579.175 376.606 580.164 374.127 581.895 372.201C583.626 370.274 585.986 369.024 588.554 368.675C589.074 368.607 589.205 369.41 588.685 369.479C586.293 369.8 584.094 370.964 582.486 372.761C580.878 374.559 579.966 376.871 579.915 379.281C579.903 379.805 579.093 379.714 579.105 379.194V379.194Z" fill="white"/>
<path d="M558.209 387.18C561.818 391.055 566.756 393.428 572.039 393.827C572.563 393.866 572.474 394.676 571.952 394.637C566.455 394.211 561.321 391.731 557.574 387.691C557.217 387.305 557.854 386.797 558.209 387.18H558.209Z" fill="white"/>
<path d="M602.641 382.295C602.405 383.291 602.421 384.329 602.686 385.317C602.951 386.306 603.458 387.213 604.16 387.957C604.522 388.338 603.885 388.846 603.525 388.467C602.753 387.641 602.194 386.639 601.899 385.548C601.603 384.457 601.58 383.31 601.831 382.207C601.846 382.101 601.901 382.005 601.984 381.938C602.067 381.871 602.173 381.838 602.28 381.846C602.387 381.859 602.485 381.912 602.553 381.996C602.621 382.08 602.652 382.188 602.641 382.295V382.295Z" fill="white"/>
<path d="M188.576 353.188C199.825 336.145 219.949 323.817 240.213 326.47C224.123 341.784 213.975 362.289 211.565 384.357C210.666 392.871 210.554 402.434 204.457 408.451C200.663 412.195 195.139 413.765 189.806 413.819C184.473 413.873 179.231 412.565 174.058 411.266L172.762 411.572C173.626 391.177 177.326 370.23 188.576 353.188Z" fill="#C2C2C2"/>
<path d="M240.215 326.898C224.524 333.212 211.224 344.304 202.204 358.598C200.207 361.641 198.704 364.979 197.748 368.489C196.927 371.939 197.047 375.545 198.093 378.933C199.006 382.112 200.308 385.258 200.431 388.602C200.468 390.316 200.143 392.017 199.476 393.596C198.809 395.174 197.815 396.594 196.56 397.763C193.509 400.754 189.563 402.473 185.646 404.019C181.297 405.737 176.752 407.451 173.519 410.978C173.127 411.406 172.486 410.774 172.877 410.347C178.502 404.21 187.479 403.579 193.993 398.767C197.032 396.521 199.412 393.347 199.533 389.452C199.639 386.046 198.299 382.801 197.347 379.59C196.277 376.3 196.031 372.798 196.628 369.391C197.402 365.843 198.775 362.453 200.687 359.365C204.882 352.345 210.156 346.027 216.316 340.643C223.312 334.46 231.316 329.517 239.98 326.029C240.517 325.814 240.748 326.684 240.215 326.898L240.215 326.898Z" fill="white"/>
<path d="M204.837 353.825C202.642 351.988 201.171 349.431 200.689 346.611C200.206 343.791 200.743 340.891 202.204 338.43C202.501 337.933 203.288 338.371 202.99 338.869C201.626 341.158 201.126 343.859 201.581 346.484C202.036 349.109 203.415 351.485 205.469 353.184C205.916 353.554 205.281 354.192 204.837 353.825V353.825Z" fill="white"/>
<path d="M197.418 377.382C203.255 376.92 208.703 374.278 212.676 369.982C213.069 369.556 213.71 370.188 213.317 370.613C209.175 375.076 203.5 377.814 197.425 378.282C196.846 378.326 196.842 377.426 197.418 377.382H197.418Z" fill="white"/>
<path d="M223.683 335.594C224.384 336.481 225.295 337.181 226.334 337.63C227.373 338.079 228.508 338.264 229.635 338.167C230.214 338.115 230.216 339.015 229.642 339.066C228.395 339.168 227.143 338.963 225.994 338.469C224.845 337.975 223.835 337.208 223.051 336.235C222.969 336.149 222.923 336.036 222.923 335.917C222.922 335.799 222.966 335.685 223.046 335.598C223.13 335.514 223.245 335.466 223.364 335.465C223.483 335.464 223.598 335.511 223.683 335.594H223.683Z" fill="white"/>
<path d="M277.01 385.003C276.65 385.045 276.29 385.088 275.926 385.137C271.087 385.732 266.305 386.719 261.626 388.087C261.263 388.188 260.896 388.294 260.536 388.405C249.299 391.822 238.795 397.294 229.558 404.541C225.885 407.429 222.437 410.591 219.244 414.001C214.835 418.71 210.43 424.167 204.884 427.061C204.309 427.369 203.715 427.642 203.106 427.877L173.236 413.127C173.185 413.059 173.131 412.999 173.079 412.931L171.86 412.396C172.012 412.209 172.174 412.018 172.326 411.831C172.414 411.722 172.509 411.616 172.597 411.507C172.658 411.435 172.719 411.364 172.769 411.295C172.789 411.272 172.81 411.248 172.827 411.231C172.877 411.162 172.932 411.105 172.979 411.043C173.882 409.973 174.794 408.907 175.715 407.846C175.718 407.839 175.718 407.839 175.729 407.835C182.768 399.766 190.543 392.213 199.219 386.078C199.48 385.894 199.744 385.702 200.019 385.525C203.945 382.781 208.089 380.363 212.41 378.294C214.779 377.168 217.204 376.164 219.675 375.283C226.065 373.02 232.771 371.776 239.548 371.594C253.057 371.235 266.532 375.195 276.273 384.3C276.522 384.533 276.764 384.763 277.01 385.003Z" fill="#C2C2C2"/>
<path d="M276.755 385.349C260.421 380.954 243.116 381.812 227.297 387.801C223.869 389.03 220.656 390.791 217.777 393.019C215.042 395.28 212.964 398.231 211.757 401.565C210.57 404.652 209.713 407.947 207.795 410.691C206.792 412.082 205.507 413.245 204.023 414.104C202.538 414.963 200.889 415.5 199.183 415.678C194.943 416.232 190.757 415.231 186.697 414.11C182.189 412.866 177.527 411.502 172.819 412.374C172.249 412.479 172.118 411.589 172.688 411.484C180.878 409.967 188.426 414.861 196.527 414.936C200.308 414.97 204.122 413.868 206.566 410.83C208.704 408.174 209.59 404.777 210.765 401.641C211.894 398.371 213.808 395.427 216.339 393.065C219.096 390.698 222.235 388.816 225.624 387.501C233.205 384.419 241.224 382.546 249.388 381.951C258.701 381.221 268.071 382.088 277.092 384.514C277.65 384.664 277.31 385.498 276.755 385.349V385.349Z" fill="white"/>
<path d="M232.277 385.573C231.631 382.786 231.999 379.86 233.313 377.318C234.628 374.777 236.805 372.784 239.454 371.698C239.991 371.479 240.355 372.302 239.818 372.521C237.349 373.528 235.322 375.384 234.102 377.754C232.883 380.123 232.552 382.85 233.168 385.442C233.302 386.005 232.41 386.133 232.277 385.573H232.277Z" fill="white"/>
<path d="M212.153 399.921C217.092 403.062 223.035 404.228 228.797 403.187C229.367 403.084 229.498 403.974 228.928 404.077C222.93 405.149 216.749 403.923 211.616 400.643C211.127 400.33 211.667 399.61 212.153 399.921V399.921Z" fill="white"/>
<path d="M258.314 382.35C258.339 383.48 258.644 384.587 259.203 385.57C259.762 386.553 260.556 387.383 261.515 387.983C262.008 388.29 261.468 389.01 260.978 388.706C259.922 388.037 259.046 387.12 258.426 386.035C257.806 384.95 257.462 383.73 257.423 382.481C257.409 382.364 257.441 382.246 257.511 382.151C257.582 382.056 257.686 381.991 257.802 381.97C257.921 381.954 258.04 381.984 258.136 382.055C258.232 382.126 258.296 382.232 258.314 382.35V382.35Z" fill="white"/>
<path d="M268.639 225.414C269.385 224.673 269.96 223.776 270.322 222.789C270.684 221.801 270.825 220.746 270.735 219.699C270.645 218.651 270.326 217.635 269.8 216.724C269.275 215.813 268.555 215.028 267.693 214.424L279.45 157.592L266.766 161.588L257.307 216.569C256.387 218.083 256.056 219.881 256.375 221.623C256.695 223.365 257.643 224.929 259.039 226.019C260.436 227.109 262.185 227.65 263.954 227.539C265.724 227.427 267.39 226.671 268.639 225.414V225.414Z" fill="#FFB6B6"/>
<path d="M295.814 73.4992L287.957 67.5751C287.957 67.5751 281.026 67.0848 279.798 79.5699C278.57 92.0549 270.884 139.972 270.884 139.972L258.861 195.593L275.504 199.242L288.382 139.217L301.273 97.8061L295.814 73.4992Z" fill="#01D4BF"/>
<path d="M289.828 176.418L252.138 147.146C251.551 146.689 251.169 146.018 251.077 145.281C250.985 144.543 251.189 143.799 251.645 143.212L277.289 110.27C277.747 109.684 278.418 109.303 279.157 109.21C279.896 109.118 280.641 109.322 281.229 109.778L318.919 139.049C319.506 139.506 319.888 140.177 319.98 140.915C320.072 141.652 319.868 142.397 319.412 142.984L293.768 175.925C293.31 176.512 292.639 176.893 291.9 176.985C291.161 177.077 290.416 176.873 289.828 176.418V176.418Z" fill="#3F3D56"/>
<path d="M289.621 173.389L255.128 146.6C254.607 146.195 254.268 145.599 254.186 144.944C254.104 144.289 254.285 143.628 254.69 143.107L277.938 113.244C278.344 112.723 278.941 112.385 279.596 112.303C280.252 112.221 280.914 112.402 281.436 112.807L315.929 139.595C316.45 140.001 316.789 140.596 316.871 141.251C316.953 141.906 316.772 142.567 316.367 143.089L293.119 172.951C292.713 173.472 292.116 173.81 291.461 173.892C290.805 173.974 290.143 173.793 289.621 173.389V173.389Z" fill="white"/>
<path d="M259.65 145.841C259.52 145.739 259.435 145.591 259.415 145.427C259.394 145.263 259.44 145.098 259.541 144.968L271.269 129.903C271.37 129.772 271.519 129.688 271.683 129.667C271.764 129.657 271.847 129.663 271.926 129.684C272.004 129.706 272.078 129.743 272.143 129.793C272.208 129.843 272.262 129.906 272.302 129.977C272.343 130.048 272.369 130.126 272.379 130.207C272.389 130.288 272.383 130.371 272.361 130.45C272.34 130.528 272.303 130.602 272.252 130.667L260.525 145.732C260.423 145.862 260.274 145.946 260.11 145.967C259.946 145.987 259.781 145.942 259.65 145.841V145.841Z" fill="#E4E4E4"/>
<path d="M261.594 147.35C261.464 147.249 261.379 147.1 261.358 146.936C261.338 146.772 261.383 146.607 261.484 146.477L273.212 131.412C273.314 131.282 273.463 131.197 273.627 131.176C273.791 131.156 273.956 131.201 274.087 131.303C274.217 131.404 274.302 131.553 274.322 131.717C274.343 131.881 274.297 132.046 274.196 132.176L262.468 147.241C262.367 147.371 262.218 147.456 262.054 147.476C261.89 147.497 261.724 147.451 261.594 147.35Z" fill="#E4E4E4"/>
<path d="M270.182 140.325C270.051 140.224 269.967 140.075 269.946 139.911C269.926 139.747 269.971 139.582 270.072 139.452L275.156 132.922C275.206 132.857 275.269 132.803 275.34 132.762C275.411 132.722 275.489 132.696 275.571 132.685C275.652 132.675 275.734 132.681 275.813 132.703C275.892 132.724 275.966 132.761 276.031 132.811C276.096 132.862 276.15 132.924 276.19 132.995C276.231 133.066 276.257 133.145 276.267 133.226C276.277 133.307 276.271 133.39 276.249 133.468C276.227 133.547 276.19 133.621 276.14 133.686L271.056 140.216C270.955 140.346 270.806 140.431 270.642 140.451C270.478 140.472 270.312 140.426 270.182 140.325V140.325Z" fill="#E4E4E4"/>
<path d="M272.802 153.14C272.672 153.039 272.587 152.89 272.567 152.726C272.546 152.562 272.592 152.397 272.693 152.267L291.207 128.484C291.258 128.42 291.32 128.366 291.391 128.325C291.462 128.285 291.541 128.259 291.622 128.249C291.703 128.238 291.786 128.244 291.864 128.266C291.943 128.288 292.017 128.325 292.082 128.375C292.146 128.425 292.201 128.487 292.241 128.558C292.281 128.629 292.307 128.708 292.318 128.789C292.328 128.87 292.322 128.952 292.3 129.031C292.278 129.11 292.241 129.184 292.191 129.248L273.677 153.031C273.575 153.161 273.426 153.246 273.262 153.266C273.098 153.287 272.933 153.241 272.802 153.14V153.14Z" fill="#E4E4E4"/>
<path d="M274.746 154.65C274.616 154.548 274.531 154.399 274.511 154.236C274.49 154.072 274.536 153.907 274.637 153.776L293.151 129.994C293.202 129.929 293.264 129.875 293.335 129.835C293.406 129.794 293.485 129.768 293.566 129.758C293.647 129.748 293.729 129.754 293.808 129.775C293.887 129.797 293.961 129.834 294.026 129.884C294.09 129.934 294.144 129.997 294.185 130.068C294.225 130.139 294.251 130.217 294.262 130.298C294.272 130.379 294.266 130.462 294.244 130.541C294.222 130.619 294.185 130.693 294.135 130.758L275.621 154.54C275.519 154.671 275.37 154.755 275.206 154.776C275.042 154.796 274.877 154.751 274.746 154.65V154.65Z" fill="#E4E4E4"/>
<path d="M279.158 158.076C279.028 157.975 278.943 157.826 278.923 157.662C278.902 157.499 278.948 157.333 279.049 157.203L297.563 133.42C297.614 133.356 297.676 133.302 297.747 133.261C297.818 133.221 297.897 133.195 297.978 133.185C298.059 133.175 298.142 133.181 298.22 133.202C298.299 133.224 298.373 133.261 298.438 133.311C298.502 133.361 298.556 133.424 298.597 133.495C298.637 133.566 298.663 133.644 298.674 133.725C298.684 133.806 298.678 133.888 298.656 133.967C298.634 134.046 298.597 134.12 298.547 134.184L280.033 157.967C279.931 158.097 279.782 158.182 279.618 158.202C279.454 158.223 279.289 158.178 279.158 158.076V158.076Z" fill="#E4E4E4"/>
<path d="M281.102 159.586C280.972 159.485 280.887 159.336 280.867 159.172C280.846 159.008 280.891 158.843 280.993 158.713L299.507 134.93C299.558 134.865 299.62 134.811 299.691 134.771C299.762 134.73 299.841 134.704 299.922 134.694C300.003 134.684 300.085 134.69 300.164 134.712C300.243 134.733 300.317 134.77 300.382 134.821C300.446 134.871 300.5 134.933 300.541 135.004C300.581 135.075 300.607 135.153 300.618 135.235C300.628 135.316 300.622 135.398 300.6 135.477C300.578 135.556 300.541 135.629 300.491 135.694L281.977 159.477C281.875 159.607 281.726 159.691 281.562 159.712C281.398 159.732 281.233 159.687 281.102 159.586V159.586Z" fill="#E4E4E4"/>
<path d="M285.515 163.013C285.384 162.911 285.3 162.762 285.279 162.599C285.258 162.435 285.304 162.27 285.405 162.139L303.92 138.357C303.97 138.292 304.032 138.238 304.103 138.198C304.174 138.157 304.253 138.131 304.334 138.121C304.415 138.111 304.498 138.117 304.577 138.138C304.655 138.16 304.729 138.197 304.794 138.247C304.859 138.297 304.913 138.36 304.953 138.431C304.994 138.502 305.02 138.58 305.03 138.661C305.04 138.742 305.034 138.825 305.012 138.904C304.991 138.982 304.954 139.056 304.903 139.121L286.389 162.903C286.287 163.034 286.138 163.118 285.974 163.139C285.81 163.159 285.645 163.114 285.515 163.013Z" fill="#E4E4E4"/>
<path d="M287.458 164.522C287.328 164.421 287.243 164.272 287.223 164.108C287.202 163.944 287.247 163.779 287.349 163.649L305.863 139.866C305.965 139.736 306.114 139.652 306.278 139.632C306.441 139.612 306.606 139.657 306.736 139.758C306.867 139.859 306.951 140.008 306.972 140.171C306.993 140.335 306.948 140.5 306.847 140.63L288.333 164.413C288.231 164.543 288.082 164.628 287.918 164.648C287.754 164.669 287.589 164.623 287.458 164.522V164.522Z" fill="#E4E4E4"/>
<path d="M256.514 192.142C256.656 192.142 256.77 192.028 256.77 191.887C256.77 191.746 256.656 191.631 256.514 191.631C256.373 191.631 256.259 191.746 256.259 191.887C256.259 192.028 256.373 192.142 256.514 192.142Z" fill="white"/>
<path d="M293.795 16.0652C292.895 20.8943 291.419 25.5983 289.399 30.0769C277.833 54.5154 310.771 46.5497 322.542 46.5497C335.412 46.5497 347.725 53.3091 345.844 23.2749C345.041 10.4456 335.412 0 322.542 0C311.549 0 296.093 4.88028 293.795 16.0652Z" fill="#2F2E41"/>
<path d="M334.538 374.49H323.573L318.355 332.247H334.538V374.49Z" fill="#FFB6B6"/>
<path d="M340.326 393.466H332.462L331.059 386.05L327.464 393.466H306.608C305.608 393.466 304.635 393.147 303.83 392.555C303.024 391.963 302.43 391.13 302.132 390.177C301.835 389.223 301.85 388.2 302.176 387.256C302.502 386.312 303.122 385.497 303.944 384.93L320.599 373.441V365.945L338.117 366.989L340.326 393.466Z" fill="#2F2E41"/>
<path d="M399.681 360.668L390.882 367.204L361.458 336.416L374.445 326.77L399.681 360.668Z" fill="#FFB6B6"/>
<path d="M415.662 372.446L409.352 377.133L403.796 372.019L405.341 380.112L388.605 392.542C387.803 393.138 386.831 393.462 385.832 393.467C384.832 393.472 383.857 393.158 383.048 392.571C382.24 391.983 381.641 391.153 381.339 390.201C381.037 389.249 381.047 388.226 381.368 387.28L387.869 368.135L383.39 362.119L398.072 352.517L415.662 372.446Z" fill="#2F2E41"/>
<path d="M298.626 180.074L350.677 171.976L340.326 140.874H298.626V180.074Z" fill="#FFB6B6"/>
<path d="M347.304 156.539C347.304 156.539 368.109 174.491 358.51 225.67L346.791 275.816L378.719 331.181L362.484 340.026L323.139 285.406L305.134 243.224L295.611 169.296L347.304 156.539Z" fill="#2F2E41"/>
<path d="M315.058 255.245L313.807 274.601L317.47 331.919L335.656 338.173L339.1 279.445L315.058 255.245Z" fill="#2F2E41"/>
<path d="M309.467 52.9916L329.587 53.7756L337.605 67.0704L355.9 70.6376L344.979 125.824L346.987 157.235L328.77 157.124C315.642 157.044 302.946 161.808 293.118 170.502V170.502L293.663 129.728L285.827 99.2902L287.588 67.3746L302.305 65.5371L309.467 52.9916Z" fill="#01D4BF"/>
<path d="M320.614 46.5439C331.072 46.5439 339.55 38.0761 339.55 27.6305C339.55 17.1849 331.072 8.71704 320.614 8.71704C310.156 8.71704 301.678 17.1849 301.678 27.6305C301.678 38.0761 310.156 46.5439 320.614 46.5439Z" fill="#FFB6B6"/>
<path d="M307.754 8.35081C311.072 6.33034 314.873 5.23738 318.759 5.18621C322.645 5.13504 326.473 6.12755 329.843 8.05995C333.214 9.99234 336.002 12.7937 337.918 16.171C339.833 19.5483 340.805 23.3776 340.732 27.2584C331.083 29.6781 320.946 31.5298 310.656 27.8372L308.226 21.897L306.793 27.8416C303.66 29.1209 300.518 30.2033 297.376 27.8292C297.248 23.9593 298.139 20.1236 299.96 16.7054C301.781 13.2872 304.469 10.4064 307.754 8.35081Z" fill="#2F2E41"/>
<path d="M352.398 195.367L354.951 218.505C355.129 219.082 355.487 219.587 355.973 219.946C356.46 220.305 357.049 220.499 357.653 220.499H369.42C370.025 220.499 370.614 220.305 371.1 219.946C371.587 219.587 371.945 219.082 372.123 218.505L374.237 200.771C374.847 201.069 375.52 201.219 376.2 201.208C376.879 201.197 377.546 201.024 378.146 200.705C378.746 200.386 379.262 199.929 379.65 199.372C380.039 198.815 380.29 198.174 380.382 197.502C380.475 196.829 380.406 196.144 380.181 195.504C379.957 194.863 379.584 194.284 379.092 193.816C378.6 193.347 378.004 193.002 377.352 192.808C376.701 192.615 376.013 192.578 375.344 192.702C375.081 192.391 374.752 192.141 374.381 191.97C374.011 191.799 373.607 191.711 373.199 191.711H355.101C354.659 191.711 354.222 191.815 353.827 192.014C353.432 192.213 353.089 192.502 352.826 192.858C352.563 193.213 352.388 193.626 352.313 194.061C352.239 194.497 352.268 194.944 352.398 195.367V195.367ZM374.607 199.571L375.902 195.367C376.052 194.881 376.066 194.365 375.945 193.872C376 193.869 376.052 193.855 376.108 193.855C376.921 193.855 377.701 194.178 378.276 194.752C378.851 195.326 379.174 196.105 379.174 196.918C379.174 197.73 378.851 198.509 378.276 199.083C377.701 199.657 376.921 199.98 376.108 199.98C375.58 199.977 375.063 199.836 374.607 199.571V199.571Z" fill="#3F3D56"/>
<path d="M370.141 220.515C369.399 219.769 368.829 218.87 368.472 217.881C368.114 216.891 367.979 215.836 368.074 214.788C368.17 213.741 368.494 212.727 369.024 211.819C369.554 210.91 370.278 210.128 371.143 209.529L359.675 152.638L372.339 156.699L381.518 211.727C382.43 213.246 382.752 215.046 382.424 216.786C382.096 218.526 381.14 220.085 379.738 221.168C378.335 222.251 376.584 222.783 374.815 222.663C373.047 222.542 371.384 221.778 370.141 220.515V220.515Z" fill="#FFB6B6"/>
<path d="M348.043 76.5617L355.901 70.6376C355.901 70.6376 362.832 70.1473 364.06 82.6324C365.287 95.1174 372.973 143.035 372.973 143.035L384.997 198.655L368.353 202.304L355.475 142.28L342.584 100.869L348.043 76.5617Z" fill="#01D4BF"/>
<path d="M280.229 128.35C282.686 128.35 284.677 126.361 284.677 123.907C284.677 121.454 282.686 119.465 280.229 119.465C277.773 119.465 275.781 121.454 275.781 123.907C275.781 126.361 277.773 128.35 280.229 128.35Z" fill="#01D4BF"/>
<path d="M138.397 426.026L147.666 426.025L152.076 390.315L138.396 390.316L138.397 426.026Z" fill="#FFB6B6"/>
<path d="M136.033 423.003L138.642 423.003L148.828 418.865L154.287 423.002H154.288C157.373 423.002 160.332 424.227 162.514 426.406C164.695 428.584 165.921 431.54 165.921 434.621V434.999L136.033 435L136.033 423.003Z" fill="#2F2E41"/>
<path d="M174.317 420.191L183.359 422.231L195.536 388.368L182.191 385.358L174.317 420.191Z" fill="#FFB6B6"/>
<path d="M172.678 416.723L175.222 417.297L186.071 415.502L190.484 420.738L190.484 420.738C193.494 421.417 196.11 423.263 197.758 425.868C199.405 428.473 199.949 431.626 199.269 434.632L199.186 435L170.032 428.425L172.678 416.723Z" fill="#2F2E41"/>
<path d="M121.428 242.339L129.81 336.137C129.81 336.137 126.669 392.449 136.803 412.265H151.501L158.778 330.994L159.692 276.445L191.201 322.466L171.132 410.936L189.221 412.551L221.788 316.541L186.009 226.409L121.428 242.339Z" fill="#2F2E41"/>
<path d="M130.207 92.9667C142.145 92.9667 151.823 83.3002 151.823 71.376C151.823 59.4518 142.145 49.7853 130.207 49.7853C118.268 49.7853 108.59 59.4518 108.59 71.376C108.59 83.3002 118.268 92.9667 130.207 92.9667Z" fill="#FFB8B8"/>
<path d="M168.207 113.542L150.473 105.942L141.84 96.7958L120.273 100.27L114.551 110.069L96.0281 127.272L117.73 225.282L117.073 246.688C117.073 246.688 130.963 252.934 191.201 238.554C191.924 238.381 190.411 237.626 190.411 237.626L168.207 113.542Z" fill="#3F3D56"/>
<path d="M107.729 83.6271C107.578 83.4218 107.429 83.2147 107.281 83.006C107.222 83.1313 107.175 83.2609 107.107 83.3833L107.729 83.6271Z" fill="#2F2E41"/>
<path d="M151.709 55.5833C150.264 52.4393 147.688 49.9534 144.492 48.6195C141.325 47.3434 137.785 47.3465 134.619 48.6281C131.762 46.8248 128.586 45.3951 125.242 45.218C121.898 45.0409 118.363 46.28 116.302 49.0076C115.842 49.7276 115.319 50.4058 114.74 51.0344C113.084 52.5666 110.566 52.3456 108.365 52.0323C109.352 52.8777 110.34 53.723 111.328 54.5684C110.133 54.8803 108.937 55.1922 107.741 55.5041C109.137 56.3492 110.532 57.1943 111.926 58.0394C107.877 60.4673 106.036 65.7665 106.522 70.5792C106.982 75.1358 109.185 79.3025 111.818 83.0059C112.868 80.7922 112.642 78.1432 112.624 75.6499C112.606 73.0155 113.073 70.0239 115.186 68.5516C116.612 67.5584 118.445 67.5141 120.165 67.5235C128.837 67.571 137.499 68.1112 146.11 69.1413C147.278 69.1918 148.418 69.5218 149.432 70.1036C151.336 71.4011 151.707 74.0788 151.898 76.428C152.904 72.5492 153.397 68.5553 153.363 64.5486C153.447 61.4774 152.884 58.4227 151.709 55.5833V55.5833Z" fill="#2F2E41"/>
<path d="M158.439 308.092C177.229 308.092 192.462 292.877 192.462 274.109C192.462 255.341 177.229 240.127 158.439 240.127C139.649 240.127 124.416 255.341 124.416 274.109C124.416 292.877 139.649 308.092 158.439 308.092Z" fill="white"/>
<path d="M158.439 239.372C156.69 239.372 154.944 239.503 153.215 239.765C152.33 239.893 151.468 240.059 150.614 240.263C144.337 241.708 138.586 244.867 134.002 249.386C129.418 253.906 126.181 259.608 124.653 265.858C123.124 272.108 123.365 278.659 125.347 284.781C127.329 290.902 130.975 296.353 135.878 300.525C136.46 301.016 137.05 301.492 137.662 301.945C142.076 305.232 147.209 307.425 152.637 308.344C158.066 309.263 163.635 308.881 168.886 307.23C174.138 305.578 178.922 302.705 182.845 298.847C186.768 294.988 189.717 290.254 191.45 285.034C193.184 279.815 193.651 274.259 192.814 268.823C191.977 263.388 189.86 258.229 186.637 253.77C183.414 249.312 179.177 245.682 174.274 243.179C169.372 240.675 163.945 239.371 158.439 239.372V239.372ZM158.439 307.337C151.366 307.344 144.476 305.086 138.781 300.895C138.162 300.442 137.564 299.974 136.982 299.475C132.205 295.451 128.661 290.162 126.755 284.217C124.85 278.273 124.661 271.912 126.209 265.864C127.758 259.817 130.982 254.328 135.511 250.027C140.04 245.725 145.691 242.786 151.816 241.547C152.663 241.373 153.51 241.237 154.372 241.131C155.721 240.964 157.079 240.881 158.439 240.882C167.262 240.882 175.724 244.383 181.962 250.614C188.201 256.845 191.706 265.297 191.706 274.109C191.706 282.922 188.201 291.373 181.962 297.605C175.724 303.836 167.262 307.337 158.439 307.337V307.337Z" fill="#3F3D56"/>
<path d="M141.751 267.313H175.127C176.35 267.313 177.341 266.323 177.341 265.102V264.993C177.341 263.772 176.35 262.782 175.127 262.782H141.751C140.529 262.782 139.538 263.772 139.538 264.993V265.102C139.538 266.323 140.529 267.313 141.751 267.313Z" fill="#01D4BF"/>
<path d="M141.751 276.375H175.127C176.35 276.375 177.341 275.385 177.341 274.164V274.055C177.341 272.834 176.35 271.844 175.127 271.844H141.751C140.529 271.844 139.538 272.834 139.538 274.055V274.164C139.538 275.385 140.529 276.375 141.751 276.375Z" fill="#01D4BF"/>
<path d="M141.751 285.437H175.127C176.35 285.437 177.341 284.447 177.341 283.226V283.117C177.341 281.896 176.35 280.906 175.127 280.906H141.751C140.529 280.906 139.538 281.896 139.538 283.117V283.226C139.538 284.447 140.529 285.437 141.751 285.437Z" fill="#01D4BF"/>
<path d="M539.081 424.873L529.361 424.872L524.737 387.428L539.082 387.429L539.081 424.873Z" fill="#9E616A"/>
<path d="M493.099 424.873L483.38 424.872L478.756 387.428L493.101 387.429L493.099 424.873Z" fill="#9E616A"/>
<path d="M493.441 435L463.553 434.999V434.621C463.554 431.54 464.779 428.584 466.961 426.406C469.143 424.227 472.101 423.002 475.187 423.002H475.187L480.647 418.865L490.833 423.003L493.442 423.003L493.441 435Z" fill="#2F2E41"/>
<path d="M540.669 435L510.782 434.999V434.621C510.782 431.54 512.008 428.584 514.189 426.406C516.371 424.227 519.33 423.002 522.415 423.002H522.416L527.875 418.865L538.061 423.003L540.67 423.003L540.669 435Z" fill="#2F2E41"/>
<path d="M483.565 203.266L468.794 293.102L472.814 306.489L467.539 315.97L475.285 399.236L472.141 406.151L480.927 411.563H498.804L499.753 336.181L504.169 325.114V319.014L513.159 273.048L514.814 337.421L517.429 348.505L515.232 356.398L518.102 361.927L525.726 413.205H545.772L544.222 401.275C545.968 400.392 547.371 398.955 548.21 397.189C549.049 395.423 549.276 393.428 548.857 391.519L547.707 386.29L550.323 370.829L555.087 284.575L553.744 214.98L530.293 197.069L483.565 203.266Z" fill="#2F2E41"/>
<path d="M517.428 87.9055C527.715 87.9055 536.053 79.5769 536.053 69.303C536.053 59.0291 527.715 50.7004 517.428 50.7004C507.142 50.7004 498.804 59.0291 498.804 69.303C498.804 79.5769 507.142 87.9055 517.428 87.9055Z" fill="#9E616A"/>
<path d="M476.736 238.915C477.546 238.079 478.163 237.075 478.543 235.975C478.924 234.874 479.058 233.704 478.936 232.546C478.814 231.389 478.44 230.272 477.839 229.274C477.238 228.277 476.426 227.423 475.459 226.773L482.702 199.417L468.748 204.105L464.01 229.363C463.024 231.058 462.695 233.055 463.085 234.976C463.475 236.897 464.556 238.608 466.125 239.785C467.694 240.963 469.64 241.524 471.596 241.364C473.552 241.204 475.38 240.333 476.736 238.915H476.736Z" fill="#9E616A"/>
<path d="M484.358 107.575L481.363 106.954L478.808 108.367C478.808 108.367 471.673 117.869 471.673 126.579C471.673 135.289 462.953 219.224 462.953 219.224L478.808 226.35L491.493 160.628L484.358 107.575Z" fill="#C2C2C2"/>
<path d="M533.739 55.664C533.739 55.664 538.61 46.3627 527.893 45.5171C527.893 45.5171 518.757 37.2393 509.445 44.0038C509.445 44.0038 504.365 44.0038 501.588 49.745C501.588 49.745 497.593 48.2317 496.715 52.2817C496.715 52.2817 493.792 60.7374 496.715 68.3475C499.638 75.9577 500.609 76.8032 500.609 76.8032C500.609 76.8032 495.805 60.8482 507.498 60.0026C519.19 59.157 532.274 51.8589 533.248 61.1602C534.222 70.4614 535.689 72.7532 535.689 72.7532C535.689 72.7532 544.943 59.469 533.739 55.664Z" fill="#2F2E41"/>
<path d="M601.774 315.97C600.368 315.972 599.011 315.455 597.964 314.518L541.599 264.405C540.464 263.393 539.776 261.972 539.688 260.454C539.6 258.936 540.118 257.445 541.128 256.309L577.236 215.794C578.249 214.659 579.672 213.972 581.192 213.884C582.711 213.796 584.204 214.313 585.342 215.323L641.707 265.438C642.844 266.449 643.533 267.87 643.621 269.388C643.71 270.906 643.19 272.397 642.178 273.533L606.07 314.048C605.57 314.612 604.963 315.072 604.284 315.4C603.605 315.728 602.868 315.919 602.115 315.96C602.001 315.967 601.887 315.97 601.774 315.97Z" fill="white"/>
<path d="M601.773 316.339C600.277 316.341 598.833 315.791 597.719 314.794L541.354 264.68C540.145 263.603 539.414 262.091 539.32 260.475C539.226 258.86 539.777 257.273 540.853 256.063L576.96 215.549C578.039 214.341 579.553 213.611 581.17 213.517C582.788 213.423 584.376 213.973 585.588 215.048L641.952 265.162C643.163 266.238 643.895 267.751 643.989 269.367C644.083 270.982 643.531 272.569 642.454 273.779L606.346 314.293C605.814 314.894 605.168 315.383 604.445 315.732C603.722 316.081 602.938 316.284 602.136 316.329C602.015 316.335 601.894 316.339 601.773 316.339ZM581.527 214.98C580.873 214.978 580.226 215.116 579.629 215.383C579.031 215.65 578.498 216.04 578.063 216.529L541.956 257.044C541.14 257.961 540.721 259.165 540.793 260.39C540.864 261.615 541.419 262.762 542.336 263.579L598.7 313.693C599.155 314.097 599.685 314.408 600.259 314.608C600.834 314.807 601.443 314.892 602.051 314.857C602.658 314.821 603.253 314.667 603.801 314.402C604.348 314.137 604.839 313.767 605.243 313.313L641.351 272.798C642.168 271.881 642.587 270.678 642.516 269.452C642.445 268.227 641.889 267.08 640.971 266.263L584.606 216.149C583.759 215.394 582.663 214.978 581.527 214.98H581.527Z" fill="#3F3D56"/>
<path d="M622.213 277.601C621.604 277.602 621.016 277.378 620.562 276.974L576.318 237.636C576.073 237.42 575.873 237.157 575.73 236.864C575.587 236.57 575.503 236.251 575.484 235.925C575.464 235.599 575.51 235.272 575.617 234.964C575.724 234.655 575.891 234.371 576.108 234.127C576.326 233.883 576.589 233.685 576.883 233.543C577.178 233.401 577.497 233.318 577.824 233.3C578.15 233.281 578.477 233.327 578.786 233.435C579.094 233.543 579.378 233.711 579.622 233.929L623.866 273.267C624.242 273.601 624.508 274.042 624.628 274.531C624.747 275.02 624.715 275.533 624.536 276.003C624.357 276.473 624.038 276.878 623.623 277.163C623.208 277.449 622.716 277.601 622.213 277.601V277.601Z" fill="#01D4BF"/>
<path d="M613.774 287.069C613.165 287.07 612.577 286.847 612.123 286.442L567.879 247.105C567.635 246.888 567.437 246.626 567.295 246.332C567.153 246.039 567.07 245.721 567.051 245.395C567.032 245.07 567.078 244.744 567.185 244.436C567.292 244.129 567.459 243.845 567.676 243.602C567.893 243.358 568.155 243.16 568.449 243.018C568.743 242.876 569.062 242.793 569.387 242.775C569.713 242.756 570.039 242.801 570.347 242.908C570.655 243.015 570.939 243.182 571.183 243.398L615.427 282.736C615.804 283.071 616.069 283.511 616.189 284C616.309 284.489 616.277 285.002 616.097 285.473C615.918 285.943 615.599 286.347 615.184 286.632C614.769 286.918 614.277 287.07 613.774 287.069H613.774Z" fill="#01D4BF"/>
<path d="M605.335 296.54C604.726 296.541 604.138 296.317 603.684 295.912L559.439 256.575C559.195 256.358 558.996 256.096 558.854 255.802C558.711 255.509 558.628 255.19 558.609 254.865C558.59 254.539 558.635 254.213 558.743 253.905C558.85 253.597 559.017 253.313 559.234 253.07C559.451 252.826 559.714 252.627 560.008 252.486C560.302 252.344 560.621 252.261 560.947 252.242C561.273 252.223 561.599 252.269 561.908 252.376C562.216 252.484 562.5 252.651 562.744 252.868L606.988 292.206C607.364 292.54 607.63 292.981 607.749 293.47C607.869 293.958 607.837 294.472 607.658 294.942C607.479 295.412 607.16 295.817 606.745 296.102C606.33 296.388 605.838 296.54 605.335 296.54H605.335Z" fill="#01D4BF"/>
<path d="M554.738 240.53C554.17 239.513 553.832 238.385 553.748 237.224C553.664 236.063 553.836 234.897 554.252 233.81C554.668 232.723 555.317 231.739 556.155 230.93C556.992 230.12 557.997 229.504 559.099 229.124L559.147 200.828L571.423 208.944L569.496 234.57C570.012 236.461 569.815 238.475 568.944 240.231C568.072 241.987 566.586 243.362 564.767 244.097C562.948 244.832 560.922 244.874 559.074 244.217C557.225 243.56 555.682 242.248 554.738 240.53H554.738Z" fill="#9E616A"/>
<path d="M555.873 115.329L561.357 110.049L565.386 112.953C565.386 112.953 569.35 117.704 572.521 131.957C575.692 146.211 572.521 224.602 572.521 224.602L555.08 222.227L557.458 181.051L550.323 146.211L555.873 115.329Z" fill="#C2C2C2"/>
<path d="M563.971 111.337L545.493 102.521L532.948 90.8993L510.072 90.7283L502.693 100.31L483.211 106.92L486.458 174.016L484.244 179.176C484.244 179.176 485.787 180.567 486.491 181.346C487.196 182.124 485.517 188.64 485.517 188.64L484.571 195.729L487.196 197.602L483.784 201.628L482.937 207.974C482.937 207.974 542.5 193.187 553.754 217.683C554.349 218.977 552.884 206.328 552.884 206.328L551.42 197.069L552.873 188.757L555.087 186.546L551.374 182.838L553.754 165.241L563.971 111.337Z" fill="#3F3D56"/>
<path d="M144.939 260.084C145.397 258.921 145.595 257.672 145.518 256.424C145.441 255.177 145.091 253.961 144.493 252.864C143.894 251.766 143.062 250.812 142.055 250.07C141.048 249.329 139.89 248.816 138.664 248.57L134.559 218.465L122.658 228.856L128.38 255.851C128.102 257.937 128.6 260.052 129.779 261.796C130.957 263.54 132.736 264.791 134.777 265.313C136.818 265.835 138.98 265.591 140.853 264.627C142.726 263.663 144.179 262.047 144.939 260.084V260.084Z" fill="#FFB8B8"/>
<path d="M98.3118 126.722L95.086 127.339L93.1361 129.791C93.1361 129.791 89.9817 142.149 93.5751 150.785C97.1685 159.421 123.149 246.232 123.149 246.232L141.81 246.773L127.273 176.388L98.3118 126.722Z" fill="#3F3D56"/>
<path d="M171.879 255.668C171.019 254.76 170.369 253.674 169.975 252.488C169.581 251.302 169.452 250.043 169.597 248.802C169.743 247.561 170.159 246.366 170.816 245.303C171.474 244.239 172.357 243.333 173.403 242.647L165.974 213.185L180.895 218.394L185.663 245.573C186.7 247.405 187.028 249.553 186.585 251.611C186.142 253.668 184.959 255.491 183.26 256.736C181.561 257.98 179.464 258.559 177.366 258.362C175.268 258.165 173.316 257.206 171.879 255.668V255.668Z" fill="#FFB8B8"/>
<path d="M165.359 114.558L168.583 113.93L171.307 115.479C171.307 115.479 178.847 125.771 178.737 135.122C178.627 144.474 186.926 234.7 186.926 234.7L169.813 242.151L157.027 171.428L165.359 114.558Z" fill="#3F3D56"/>
</g>
<defs>
<clipPath id="clip0_403_454">
<rect width="644" height="435" fill="white"/>
</clipPath>
</defs>
</svg>
