<?xml version="1.0" encoding="iso-8859-1"?>
<!-- Generator: Adobe Illustrator 19.0.0, SVG Export Plug-In . SVG Version: 6.00 Build 0)  -->
<svg version="1.1" id="Layer_1" xmlns="http://www.w3.org/2000/svg" xmlns:xlink="http://www.w3.org/1999/xlink" x="0px" y="0px"
	 viewBox="0 0 500 500" style="enable-background:new 0 0 500 500;" xml:space="preserve">
<g>
	<g>
		<path d="M419.138,25.216C404.09,8.48,382.678,0,355.502,0c-15.132,0-32.028,2.52-51.656,7.704
			c-22.268,5.892-37.36,8.192-53.844,8.192c-16.476,0-31.564-2.296-53.828-8.192C176.55,2.52,159.658,0,144.522,0
			C117.346,0,95.93,8.48,80.878,25.216c-23.232,25.828-30.944,70.952-23.58,137.96C82.63,392.976,122.222,500,181.914,500
			c5.548,0,24.644-1.192,37.336-16.52c9.816-11.864,12.796-28.164,8.852-48.456c-9.728-49.82-16.164-133.652,5.972-160.416
			c4.34-5.248,9.252-7.584,15.924-7.584c6.688,0,11.608,2.336,15.944,7.588c22.152,26.78,15.704,110.604,5.968,160.416
			c-3.936,20.292-0.96,36.6,8.864,48.448c12.688,15.328,31.788,16.52,37.34,16.52c59.724,0,99.304-107.024,124.576-336.824
			C450.074,96.192,442.37,51.068,419.138,25.216z"/>
	</g>
</g>
<g>
</g>
<g>
</g>
<g>
</g>
<g>
</g>
<g>
</g>
<g>
</g>
<g>
</g>
<g>
</g>
<g>
</g>
<g>
</g>
<g>
</g>
<g>
</g>
<g>
</g>
<g>
</g>
<g>
</g>
</svg>
